<?xml version="1.0" standalone="no"?>
<!DOCTYPE svg PUBLIC "-//W3C//DTD SVG 20010904//EN"
 "http://www.w3.org/TR/2001/REC-SVG-20010904/DTD/svg10.dtd">
<svg version="1.0" xmlns="http://www.w3.org/2000/svg"
 width="753.000000pt" height="873.000000pt" viewBox="0 0 753.000000 873.000000"
 preserveAspectRatio="xMidYMid meet">
<metadata>
Created by potrace 1.10, written by Peter Selinger 2001-2011
</metadata>
<g transform="translate(0.000000,873.000000) scale(0.100000,-0.100000)"
fill="#ff0000" stroke="none">
<path d="M4038 7705 c-70 -7 -149 -18 -175 -24 -26 -5 -73 -14 -103 -20 -30
-5 -82 -17 -115 -26 -33 -9 -80 -20 -105 -25 -25 -6 -54 -14 -65 -19 -11 -5
-58 -24 -105 -41 -99 -37 -112 -42 -245 -105 -110 -53 -346 -191 -385 -227
-14 -13 -43 -35 -65 -49 -137 -91 -425 -378 -526 -524 -19 -27 -37 -52 -40
-55 -9 -8 -74 -103 -82 -120 -4 -8 -16 -28 -27 -45 -11 -16 -24 -39 -30 -50
-6 -11 -24 -42 -40 -70 -17 -27 -34 -59 -39 -70 -5 -11 -29 -64 -55 -117 -25
-53 -46 -101 -46 -106 0 -5 -7 -23 -15 -38 -8 -16 -15 -36 -15 -44 0 -9 -4
-20 -9 -25 -4 -6 -18 -44 -30 -85 -13 -41 -28 -91 -34 -110 -6 -19 -14 -53
-18 -75 -15 -76 -30 -150 -40 -195 -18 -85 -39 -325 -39 -450 0 -130 24 -413
40 -465 5 -16 13 -57 19 -90 16 -96 32 -169 41 -180 4 -5 11 -31 14 -57 4 -26
11 -50 17 -53 5 -4 9 -14 9 -23 1 -9 9 -35 20 -57 11 -22 19 -48 20 -57 0 -9
5 -20 10 -23 5 -3 10 -13 10 -22 0 -9 14 -45 30 -80 17 -35 44 -93 61 -130 42
-89 181 -321 213 -355 15 -15 26 -30 26 -32 0 -10 69 -96 160 -201 163 -188
406 -390 620 -519 52 -31 102 -61 110 -66 42 -26 269 -130 283 -130 9 0 18 -4
22 -9 3 -5 19 -12 36 -16 17 -4 42 -13 57 -21 15 -8 34 -14 43 -14 8 0 19 -4
25 -10 5 -5 30 -14 54 -19 25 -6 72 -17 105 -25 33 -8 78 -19 100 -24 141 -35
413 -65 580 -64 94 0 433 30 448 39 5 3 40 9 79 14 39 5 76 13 82 18 6 5 35
12 63 16 29 4 55 11 59 16 3 5 17 9 32 9 15 0 39 6 54 14 15 8 40 17 57 21 17
4 33 11 36 16 4 5 14 9 23 9 9 0 30 7 46 15 15 8 34 15 42 15 8 0 40 13 71 29
32 16 106 53 166 81 59 29 107 56 107 61 0 5 4 9 9 9 27 0 345 230 437 317 28
26 69 64 90 84 102 93 316 357 387 476 17 31 41 69 51 87 48 78 146 279 176
361 18 50 37 95 41 100 3 6 10 25 14 43 4 18 13 45 21 60 8 15 14 35 14 46 0
10 6 39 14 65 33 105 46 160 46 194 0 20 5 48 10 63 17 43 40 313 41 459 0
119 -26 438 -37 456 -2 4 -11 41 -18 81 -8 40 -21 102 -30 138 -9 36 -21 85
-26 110 -6 24 -15 49 -20 54 -6 6 -10 16 -10 24 0 8 -6 28 -14 45 -7 18 -24
61 -37 97 -12 36 -44 110 -71 165 -144 300 -296 519 -514 741 -190 192 -327
302 -530 425 -126 76 -372 199 -397 199 -9 0 -18 4 -22 9 -3 5 -19 12 -36 16
-17 4 -42 13 -57 21 -15 8 -34 14 -42 14 -9 0 -21 5 -26 10 -6 6 -33 15 -60
20 -27 5 -76 16 -109 25 -276 76 -619 101 -937 70z m587 -114 c44 -7 105 -19
136 -27 30 -8 70 -14 88 -14 18 0 56 -7 85 -16 28 -9 71 -22 96 -30 25 -8 54
-14 66 -14 11 0 29 -7 40 -15 10 -8 28 -15 40 -15 11 0 29 -7 40 -15 10 -8 27
-15 37 -15 9 0 45 -13 80 -29 34 -16 83 -39 109 -51 27 -12 50 -26 54 -31 3
-5 15 -9 26 -9 12 0 31 -9 42 -19 12 -11 35 -27 53 -38 17 -10 64 -38 103 -63
40 -25 81 -50 92 -57 12 -6 23 -15 27 -20 3 -5 44 -38 90 -73 132 -99 343
-317 464 -477 59 -78 107 -146 107 -151 0 -5 20 -39 44 -76 25 -37 65 -111 91
-164 25 -53 60 -122 76 -153 16 -31 29 -66 29 -77 0 -11 6 -33 14 -49 22 -43
42 -101 61 -173 9 -36 22 -87 30 -115 20 -74 45 -206 45 -239 0 -16 7 -65 16
-108 13 -64 15 -123 11 -306 -2 -125 -10 -256 -16 -292 -7 -36 -19 -108 -27
-160 -8 -52 -20 -108 -26 -125 -5 -16 -13 -46 -18 -65 -14 -64 -38 -144 -60
-200 -12 -30 -25 -68 -30 -85 -4 -16 -19 -52 -33 -80 -14 -27 -48 -98 -77
-157 -28 -60 -56 -108 -61 -108 -5 0 -9 -9 -9 -19 0 -11 -5 -23 -11 -26 -5 -4
-15 -17 -20 -28 -15 -33 -63 -110 -84 -134 -24 -27 -60 -77 -65 -88 -18 -43
-364 -401 -433 -448 -18 -12 -54 -39 -79 -60 -25 -20 -50 -37 -56 -37 -6 0
-15 -6 -19 -13 -4 -7 -30 -26 -58 -43 -27 -16 -59 -35 -70 -42 -11 -7 -29 -17
-40 -22 -11 -6 -33 -19 -50 -30 -39 -25 -217 -112 -275 -134 -25 -10 -58 -24
-73 -32 -16 -8 -36 -14 -45 -14 -9 0 -50 -14 -91 -30 -40 -17 -86 -30 -102
-30 -16 0 -46 -6 -66 -14 -91 -33 -187 -47 -455 -68 -121 -9 -192 -9 -310 0
-259 20 -394 40 -471 71 -16 6 -41 11 -57 11 -15 0 -61 13 -101 30 -41 16 -79
30 -86 30 -13 0 -66 21 -116 46 -16 8 -37 14 -47 14 -9 0 -23 7 -30 15 -7 8
-17 15 -23 15 -16 0 -179 84 -208 107 -8 5 -41 25 -74 43 -33 18 -104 66 -157
107 -53 40 -100 73 -103 73 -22 0 -343 325 -415 420 -35 47 -66 87 -69 90 -19
17 -92 130 -123 190 -13 25 -35 63 -50 84 -16 21 -28 45 -28 52 0 7 -14 36
-30 64 -17 28 -30 55 -30 61 0 5 -14 35 -30 66 -17 31 -30 65 -30 75 0 11 -6
32 -14 46 -26 50 -57 146 -72 222 -3 14 -11 48 -19 75 -18 63 -43 195 -50 260
-3 28 -9 82 -15 120 -12 92 -12 371 1 460 5 39 14 102 19 140 11 91 34 211 48
255 6 19 18 64 27 100 9 36 23 80 31 98 8 18 14 40 14 50 0 9 7 26 15 36 8 11
15 29 15 40 0 12 20 61 45 111 25 49 45 94 45 101 0 6 7 17 15 24 8 7 15 19
15 27 0 8 14 35 30 60 17 24 30 46 30 49 0 15 84 142 171 260 110 149 334 379
463 476 45 34 86 66 91 72 6 6 19 17 30 23 65 41 162 101 189 117 17 10 41 27
55 37 13 10 32 19 41 19 10 0 23 7 30 15 7 8 17 15 24 15 10 0 108 44 168 76
14 8 35 14 45 14 11 0 28 7 39 15 10 8 27 15 36 15 9 0 29 6 45 14 28 14 84
30 158 46 22 4 54 13 70 18 30 10 107 25 235 43 36 5 92 14 125 19 82 12 451
5 550 -9z"/>
<path d="M4130 7269 c-36 -5 -105 -13 -155 -18 -98 -10 -172 -26 -223 -47 -18
-8 -43 -14 -55 -14 -20 -1 -85 -21 -147 -47 -14 -6 -43 -16 -65 -22 -36 -11
-227 -98 -265 -121 -140 -85 -204 -126 -222 -146 -13 -13 -28 -24 -34 -24 -6
0 -24 -13 -40 -30 -16 -16 -34 -30 -41 -30 -19 0 -304 -289 -358 -362 -28 -37
-59 -79 -70 -94 -61 -81 -185 -294 -185 -317 0 -6 -6 -18 -13 -26 -7 -9 -21
-36 -31 -61 -10 -25 -23 -54 -29 -65 -5 -11 -14 -33 -18 -50 -4 -16 -17 -55
-29 -85 -12 -30 -26 -75 -30 -100 -4 -25 -12 -56 -17 -70 -17 -39 -33 -119
-44 -211 -5 -46 -14 -118 -19 -159 -5 -41 -9 -127 -9 -190 0 -107 3 -147 28
-342 12 -92 35 -199 50 -226 6 -11 11 -36 11 -54 0 -18 7 -46 15 -62 8 -15 15
-34 15 -42 0 -7 6 -28 14 -46 8 -18 22 -53 31 -78 9 -25 21 -52 26 -60 5 -8
12 -22 15 -30 24 -58 99 -201 110 -211 8 -6 14 -17 14 -24 0 -6 14 -31 30 -53
17 -23 30 -45 30 -50 0 -4 10 -18 23 -32 12 -14 35 -45 52 -69 50 -73 195
-232 290 -317 97 -87 290 -234 307 -234 5 0 27 -12 47 -28 20 -15 56 -38 81
-51 48 -26 49 -27 122 -60 26 -12 50 -26 53 -32 4 -5 16 -9 29 -9 12 0 31 -7
42 -15 10 -8 28 -15 39 -15 11 0 29 -6 40 -14 11 -7 31 -16 45 -19 14 -3 39
-10 55 -15 17 -6 57 -18 90 -26 33 -8 80 -20 105 -27 25 -6 74 -15 110 -19 36
-5 108 -13 160 -20 237 -30 634 12 865 92 17 5 41 12 55 15 14 3 34 12 45 19
11 8 29 14 40 14 11 0 29 7 39 15 11 8 30 15 42 15 12 0 27 7 34 15 7 8 16 15
21 15 9 0 142 63 174 83 11 6 39 24 63 40 24 15 45 27 48 27 10 0 241 178 299
231 33 30 85 81 115 113 30 33 64 69 76 80 44 44 234 307 234 324 0 5 14 28
30 50 17 23 30 46 30 52 0 9 46 104 72 150 4 8 11 22 14 30 16 43 38 99 51
135 8 22 21 55 29 73 8 18 14 46 14 62 0 16 6 44 14 62 21 49 37 123 47 218 5
47 14 110 18 140 13 74 12 316 0 415 -5 44 -13 114 -18 155 -8 75 -23 149 -43
205 -6 17 -13 48 -16 70 -2 22 -11 49 -18 60 -8 11 -14 29 -14 40 0 11 -7 29
-15 39 -8 11 -15 28 -15 38 0 20 -13 51 -87 203 -66 136 -93 185 -127 229 -14
19 -26 37 -26 41 0 18 -174 231 -290 354 -44 47 -167 151 -179 151 -6 0 -11 4
-11 8 0 11 -221 172 -236 172 -1 0 -23 14 -47 30 -25 17 -48 30 -51 30 -4 0
-63 27 -131 60 -68 33 -134 60 -146 60 -11 0 -33 6 -47 14 -44 24 -111 46
-137 46 -13 0 -39 6 -57 14 -48 20 -162 44 -243 50 -38 4 -104 10 -145 16 -90
11 -260 11 -350 -1z m380 -120 c41 -5 100 -12 130 -15 30 -3 78 -11 105 -19
28 -7 75 -20 105 -29 30 -8 66 -17 80 -20 14 -2 50 -14 80 -26 30 -12 66 -25
80 -29 62 -20 264 -118 314 -153 21 -16 43 -28 48 -28 10 0 236 -168 281 -209
147 -133 353 -378 407 -486 6 -11 19 -33 30 -50 10 -16 30 -52 45 -80 14 -27
29 -57 34 -65 30 -53 71 -148 71 -165 0 -11 7 -29 15 -39 8 -11 15 -30 15 -42
0 -12 7 -27 15 -34 8 -7 15 -27 15 -44 0 -17 6 -51 14 -76 8 -25 21 -68 30
-96 9 -29 16 -70 16 -92 0 -22 6 -71 14 -109 20 -98 21 -405 1 -508 -8 -44
-15 -95 -15 -114 0 -19 -7 -59 -16 -90 -34 -122 -43 -157 -48 -181 -2 -14 -14
-50 -26 -80 -12 -30 -25 -68 -30 -85 -7 -27 -47 -114 -71 -155 -5 -8 -21 -40
-35 -70 -15 -30 -37 -68 -48 -85 -24 -33 -42 -63 -52 -85 -6 -12 -89 -126
-147 -202 -46 -60 -271 -278 -317 -308 -13 -8 -32 -23 -42 -33 -10 -9 -23 -17
-28 -17 -6 0 -10 -4 -10 -10 0 -5 -32 -28 -71 -52 -40 -24 -83 -51 -98 -60
-14 -10 -35 -22 -46 -28 -11 -5 -27 -14 -35 -20 -17 -11 -117 -56 -200 -90
-30 -12 -59 -26 -64 -31 -6 -5 -21 -9 -34 -9 -13 0 -36 -6 -50 -14 -38 -19
-106 -37 -254 -65 -32 -6 -84 -16 -115 -23 -32 -7 -157 -14 -281 -16 -178 -2
-232 0 -274 13 -28 8 -65 15 -82 15 -48 0 -247 48 -314 76 -18 8 -40 14 -49
14 -9 0 -45 13 -80 30 -34 17 -69 30 -77 30 -7 0 -19 7 -26 15 -7 8 -19 15
-26 15 -8 0 -22 4 -32 10 -9 5 -28 15 -42 20 -14 6 -38 19 -55 30 -16 11 -37
23 -45 27 -8 3 -31 19 -51 35 -20 15 -40 28 -44 28 -4 0 -24 14 -45 30 -21 17
-43 30 -49 30 -6 0 -11 4 -11 10 0 5 -14 17 -30 25 -31 16 -120 96 -120 108 0
4 121 7 270 7 l269 0 16 30 c8 16 15 39 15 52 0 13 7 32 15 42 8 11 15 31 15
45 0 14 7 35 15 45 8 11 15 31 15 45 0 14 7 35 15 45 8 11 15 29 15 41 0 12 7
30 15 41 8 10 15 33 15 50 0 17 7 37 15 44 8 7 15 25 15 39 0 15 7 36 15 47 8
10 15 31 15 45 0 14 7 34 15 45 8 10 15 30 15 44 0 14 7 34 15 44 8 11 15 32
15 46 0 14 5 31 11 37 6 6 14 26 19 44 9 37 25 85 47 140 l15 36 256 6 c246 5
417 23 463 48 10 5 35 9 56 9 22 0 48 7 59 15 10 8 27 15 36 15 10 0 32 6 50
14 18 8 53 22 78 32 25 10 52 24 61 31 8 7 20 13 26 13 18 0 164 88 223 134
32 25 63 46 68 46 25 0 272 268 272 295 0 4 13 24 28 44 16 20 32 43 35 51 4
8 18 33 32 55 13 22 24 50 25 61 0 12 7 27 15 34 8 7 15 18 15 25 0 8 6 26 14
42 8 15 22 55 32 88 9 33 23 78 30 100 9 27 15 93 15 191 2 145 1 154 -27 224
-23 58 -43 87 -99 144 -82 85 -166 130 -320 173 l-100 28 -640 0 -640 0 -3
-25 c-2 -14 -9 -31 -14 -38 -6 -7 -14 -29 -18 -50 -5 -20 -18 -62 -30 -92 -12
-30 -25 -72 -30 -93 -4 -21 -13 -44 -19 -50 -6 -6 -11 -23 -11 -37 0 -14 -7
-35 -15 -46 -8 -10 -15 -30 -15 -42 0 -13 -6 -36 -14 -50 -19 -37 -37 -91 -44
-127 -2 -16 -11 -39 -18 -50 -8 -11 -14 -29 -14 -40 0 -11 -7 -29 -15 -39 -8
-11 -15 -30 -15 -43 0 -21 -16 -66 -46 -126 -8 -16 -14 -39 -14 -51 0 -12 -7
-31 -15 -42 -8 -10 -15 -30 -15 -44 0 -14 -7 -36 -15 -50 -8 -14 -15 -36 -15
-50 0 -14 -7 -34 -15 -44 -8 -11 -15 -29 -15 -41 0 -12 -7 -30 -15 -41 -8 -10
-15 -32 -15 -49 0 -16 -7 -39 -15 -49 -8 -11 -15 -29 -15 -40 0 -12 -7 -30
-15 -40 -8 -11 -15 -31 -15 -45 0 -14 -7 -35 -15 -45 -8 -11 -15 -29 -15 -41
0 -12 -7 -30 -15 -41 -8 -10 -15 -32 -15 -49 0 -16 -7 -39 -15 -49 -8 -11 -15
-29 -15 -40 0 -12 -7 -30 -15 -40 -8 -11 -15 -32 -15 -46 0 -14 -7 -35 -15
-46 -8 -10 -15 -30 -15 -44 0 -14 -7 -34 -15 -44 -8 -11 -15 -32 -15 -47 0
-14 -7 -32 -15 -39 -8 -7 -15 -27 -15 -45 0 -18 -7 -38 -15 -45 -8 -7 -15 -27
-15 -45 0 -18 -7 -38 -15 -45 -8 -7 -15 -25 -15 -40 0 -15 -7 -33 -15 -40 -8
-7 -15 -27 -15 -44 0 -17 -7 -40 -15 -50 -8 -11 -15 -32 -15 -47 0 -14 -7 -32
-15 -39 -8 -7 -15 -27 -15 -44 0 -17 -7 -40 -15 -50 -8 -11 -15 -29 -15 -41 0
-12 -7 -30 -15 -41 -8 -10 -15 -31 -15 -46 0 -14 -6 -39 -14 -55 -8 -15 -22
-47 -32 -70 -20 -50 -34 -53 -64 -15 -12 15 -45 52 -74 82 -69 73 -213 265
-239 320 -4 8 -16 29 -27 45 -11 17 -22 36 -25 43 -3 6 -7 18 -10 25 -3 6 -14
26 -25 42 -11 17 -22 37 -26 45 -3 8 -19 42 -35 75 -16 33 -29 65 -29 71 0 5
-12 39 -26 75 -15 35 -30 84 -34 109 -4 25 -12 59 -18 75 -19 56 -35 130 -43
200 -4 39 -12 102 -18 140 -13 90 -14 321 -1 405 6 36 15 99 20 140 9 78 22
133 46 210 8 25 14 55 14 67 0 12 6 34 14 50 26 53 46 104 46 119 0 13 49 125
71 164 5 8 19 35 32 60 12 25 35 64 50 87 15 24 27 45 27 47 0 6 85 130 127
186 30 40 148 174 179 204 85 82 143 132 218 188 50 37 97 73 105 80 8 6 28
19 46 28 17 9 45 26 62 38 17 12 41 26 54 32 13 5 31 14 39 20 30 20 211 100
226 100 8 0 25 5 37 12 35 20 89 39 132 48 22 4 54 12 70 18 60 21 122 34 200
43 44 5 105 13 135 18 79 12 312 12 400 0z m220 -1264 c23 -8 53 -15 67 -15
27 0 125 -51 151 -79 41 -43 60 -86 74 -164 8 -46 7 -67 -6 -107 -9 -27 -16
-61 -16 -75 0 -14 -13 -53 -30 -87 -16 -33 -30 -65 -30 -70 0 -6 -13 -30 -30
-55 -16 -24 -30 -47 -30 -50 0 -10 -73 -87 -125 -131 -27 -24 -70 -52 -95 -64
-25 -11 -53 -24 -62 -29 -98 -50 -291 -77 -547 -78 l-123 -1 7 23 c3 12 10 37
15 56 5 18 13 38 19 44 6 6 11 25 11 42 0 16 7 39 15 49 8 11 15 29 15 41 0
12 7 30 15 41 8 10 15 33 15 49 0 17 7 39 15 49 8 11 15 29 15 40 0 12 7 30
15 40 8 11 15 32 15 46 0 14 7 35 15 46 8 10 15 30 15 45 0 14 5 30 11 36 6 6
15 29 19 50 5 21 18 63 30 93 12 30 24 66 27 80 3 14 11 39 19 57 8 17 14 40
14 50 0 40 16 43 231 43 158 0 216 -4 249 -15z"/>
</g>
</svg>
