<?xml version="1.0" standalone="no"?>
<!DOCTYPE svg PUBLIC "-//W3C//DTD SVG 20010904//EN"
 "http://www.w3.org/TR/2001/REC-SVG-20010904/DTD/svg10.dtd">
<svg version="1.0" xmlns="http://www.w3.org/2000/svg"
 width="1417.000000pt" height="1417.000000pt" viewBox="0 0 1417.000000 1417.000000"
 preserveAspectRatio="xMidYMid meet">
<metadata>
Created by potrace 1.11, written by Peter Selinger 2001-2013
</metadata>
<g transform="translate(0.000000,1417.000000) scale(0.100000,-0.100000)"
fill="#000000" stroke="none">
<path d="M0 7085 l0 -7085 7085 0 7085 0 0 7085 0 7085 -7085 0 -7085 0 0
-7085z m7036 5897 c110 -80 1206 -1169 1326 -1318 403 -500 614 -1058 635
-1677 l6 -178 29 7 c202 44 531 57 746 30 759 -97 1422 -575 1762 -1270 155
-315 224 -615 223 -956 -2 -336 -71 -616 -233 -945 -129 -263 -267 -452 -472
-651 -339 -328 -749 -538 -1218 -625 -167 -30 -469 -37 -650 -14 -410 51 -767
206 -1075 466 -109 92 -619 587 -647 628 -22 32 -23 83 -4 119 14 26 354 367
552 554 104 98 137 112 199 82 20 -9 132 -110 249 -223 226 -219 336 -305 481
-378 177 -89 327 -126 520 -126 440 0 826 246 1032 658 277 553 74 1194 -462
1460 -158 79 -271 106 -462 112 -302 10 -552 -63 -773 -227 -88 -66 -354 -313
-490 -457 -52 -54 -259 -259 -460 -455 -201 -195 -476 -465 -612 -599 -136
-134 -294 -287 -350 -340 -298 -277 -475 -582 -549 -944 -26 -131 -36 -397
-19 -532 46 -371 206 -689 504 -1000 139 -147 332 -322 360 -329 68 -17 87 -1
646 546 825 808 919 898 963 919 52 25 76 20 145 -31 82 -61 638 -614 656
-653 16 -33 16 -37 0 -70 -10 -22 -297 -309 -733 -736 -394 -385 -731 -720
-748 -746 -34 -47 -41 -88 -22 -126 6 -12 238 -247 515 -522 l505 -500 0 -45
0 -45 -343 -337 c-232 -229 -353 -341 -375 -349 -50 -16 -97 5 -177 80 -116
107 -1840 1794 -2102 2055 -133 133 -278 288 -323 345 -271 343 -446 696 -545
1103 -50 204 -67 327 -73 541 -6 186 -6 188 -27 183 -12 -3 -86 -15 -166 -27
-124 -18 -174 -21 -365 -16 -360 8 -625 72 -940 227 -580 285 -1017 813 -1201
1452 -182 631 -56 1252 374 1853 359 501 888 829 1507 935 421 72 873 7 1270
-184 313 -150 493 -293 885 -698 l210 -217 0 -48 0 -48 -317 -315 c-189 -188
-333 -323 -355 -333 -73 -34 -106 -12 -388 258 -223 213 -308 282 -436 347
-566 293 -1258 61 -1543 -517 -92 -185 -126 -334 -125 -545 0 -124 4 -172 21
-240 130 -521 622 -857 1172 -802 286 28 524 130 726 311 39 35 225 217 415
405 190 188 526 518 747 734 220 216 413 411 428 432 15 22 71 75 124 119 342
279 555 618 643 1021 19 91 22 134 22 325 0 189 -3 234 -22 321 -69 319 -193
554 -442 839 -88 102 -323 324 -375 356 -42 27 -85 24 -133 -9 -23 -15 -286
-266 -583 -557 -845 -827 -905 -883 -950 -895 -29 -8 -46 -7 -71 3 -35 15
-671 627 -694 667 -24 45 -17 84 25 137 48 59 396 404 1286 1274 929 907 957
935 996 958 48 30 98 27 145 -7z"/>
</g>
</svg>
