<?xml version="1.0" standalone="no"?>
<?xml-stylesheet type="text/css"?>
<!DOCTYPE svg PUBLIC "-//W3C//DTD SVG 20010904//EN"
 "http://www.w3.org/TR/2001/REC-SVG-20010904/DTD/svg10.dtd">
<svg version="1.0" xmlns="http://www.w3.org/2000/svg"
 width="2439.000000pt" height="732.000000pt" viewBox="0 0 2439.000000 732.000000"
 preserveAspectRatio="xMidYMid meet" style="filter:invert(100%);">
<metadata>
Created by potrace 1.15, written by Peter Selinger 2001-2017
</metadata>
<filter id='color_reverse'>
</filter>
<g transform="translate(0.000000,732.000000) scale(0.100000,-0.100000)"
fill="#000000" stroke="none">
<path d="M2830 7295 c-33 -24 -1161 -1098 -1352 -1287 -135 -133 -135 -127 24
-281 68 -65 167 -159 220 -208 118 -107 134 -111 206 -46 41 36 485 458 803
763 58 55 118 104 133 108 16 4 37 1 54 -8 46 -24 275 -255 339 -341 217 -297
261 -658 120 -992 -52 -124 -132 -235 -244 -342 -54 -51 -165 -159 -248 -241
-82 -81 -249 -241 -370 -355 -121 -115 -285 -273 -365 -351 -80 -78 -169 -163
-199 -189 -156 -136 -322 -198 -531 -199 -135 0 -232 23 -345 82 -91 47 -227
181 -273 269 -146 279 -62 653 195 865 213 176 512 217 760 103 103 -47 150
-83 314 -235 162 -150 185 -166 224 -156 27 7 218 179 358 324 60 62 77 86 77
109 0 24 -28 56 -172 199 -191 188 -239 230 -343 296 -150 97 -309 162 -488
199 -133 28 -377 31 -514 6 -259 -47 -500 -162 -706 -336 -229 -192 -418 -508
-483 -806 -24 -109 -24 -349 0 -460 103 -478 433 -870 881 -1048 173 -69 277
-89 490 -94 139 -3 212 0 270 10 44 8 83 13 88 10 4 -2 7 -50 7 -106 0 -247
79 -527 216 -770 87 -153 192 -284 358 -447 388 -379 1374 -1314 1401 -1327
22 -11 37 -12 56 -4 15 5 121 101 238 212 242 232 240 228 169 305 -23 25
-167 165 -320 311 -153 146 -281 276 -284 289 -3 12 -3 32 1 43 3 11 151 158
328 327 579 553 627 601 627 633 0 24 -29 57 -177 202 -269 261 -287 273 -350
226 -17 -13 -226 -209 -465 -436 -238 -228 -450 -425 -470 -439 -34 -22 -41
-23 -67 -12 -44 18 -300 274 -360 360 -224 320 -252 700 -78 1046 67 133 143
217 518 574 199 190 469 448 598 574 280 271 359 337 466 387 122 56 200 73
345 73 142 1 221 -18 345 -82 100 -51 228 -181 277 -282 101 -206 89 -446 -33
-653 -200 -337 -614 -460 -964 -285 -88 44 -145 88 -295 229 -74 69 -145 131
-157 137 -53 28 -61 22 -320 -228 -215 -206 -214 -178 -5 -381 331 -322 490
-423 774 -495 141 -36 415 -45 570 -19 204 33 425 123 608 249 110 74 295 262
369 375 165 250 235 474 235 751 0 227 -43 405 -144 599 -199 377 -550 646
-970 743 -150 34 -481 35 -607 2 -23 -6 -23 -5 -23 87 -1 164 -37 366 -96 531
-59 163 -180 374 -294 513 -83 100 -716 718 -838 818 -42 34 -69 34 -112 2z"/>
<path d="M15870 4920 l0 -770 -345 0 -345 0 0 -60 0 -60 345 0 345 0 0 -1190
0 -1190 65 0 65 0 0 1190 0 1190 345 0 345 0 0 60 0 60 -345 0 -345 0 0 770 0
770 -65 0 -65 0 0 -770z"/>
<path d="M21142 3713 c3 -1784 5 -1982 19 -2018 l16 -40 66 -3 c37 -2 67 -2
67 0 0 2 -10 28 -23 58 l-22 55 -3 1963 -2 1962 -60 0 -60 0 2 -1977z"/>
<path d="M7820 3640 l0 -1990 749 0 c787 0 869 3 1081 46 411 82 770 282 1080
600 191 196 319 389 414 620 138 338 173 752 95 1139 -79 395 -309 775 -644
1063 -260 223 -553 376 -868 452 -238 58 -284 60 -1133 60 l-774 0 0 -1990z
m1571 1870 c379 -39 720 -171 1012 -392 100 -76 258 -227 342 -328 337 -403
475 -931 385 -1465 -60 -352 -212 -652 -471 -929 -274 -293 -642 -504 -1021
-585 -205 -43 -260 -46 -993 -46 l-700 0 -3 1878 -2 1877 674 0 c396 0 717 -4
777 -10z"/>
<path d="M13230 4194 c-102 -12 -235 -40 -311 -65 -408 -132 -768 -503 -868
-894 -62 -241 -54 -518 20 -740 126 -375 468 -707 855 -828 265 -84 577 -88
842 -11 291 84 577 288 732 521 30 45 58 82 63 83 4 0 7 -137 7 -305 l0 -305
60 0 60 0 0 1250 0 1250 -60 0 -60 0 0 -305 c0 -168 -3 -305 -7 -305 -5 0 -21
21 -38 48 -16 26 -62 85 -101 132 -113 135 -240 236 -412 323 -199 103 -367
144 -602 151 -80 2 -161 2 -180 0z m400 -139 c373 -81 701 -330 855 -649 84
-174 85 -182 85 -508 0 -282 -1 -291 -25 -364 -59 -175 -151 -318 -293 -456
-250 -242 -536 -359 -877 -360 -358 -1 -643 114 -894 363 -50 49 -114 122
-142 162 -281 398 -276 939 12 1328 64 87 226 242 314 300 163 109 332 171
550 203 64 9 342 -3 415 -19z"/>
<path d="M18155 4193 c-408 -34 -790 -260 -1023 -604 -90 -134 -162 -322 -189
-494 -18 -123 -13 -343 12 -460 106 -503 528 -905 1061 -1012 126 -25 425 -25
544 0 168 36 355 109 474 185 155 99 308 247 399 384 l52 78 3 -310 2 -310 60
0 60 0 0 1250 0 1250 -60 0 -60 0 -2 -311 -3 -311 -57 84 c-274 404 -758 624
-1273 581z m395 -138 c251 -55 449 -162 633 -343 132 -131 218 -265 281 -440
26 -73 26 -75 26 -371 0 -321 0 -324 -65 -476 -93 -218 -325 -454 -565 -575
-398 -201 -887 -176 -1254 63 -100 66 -264 220 -336 317 -275 371 -290 895
-37 1284 106 162 299 338 467 425 124 64 271 110 435 135 63 9 342 -3 415 -19z"/>
<path d="M21839 4008 c38 -79 316 -639 620 -1246 l551 -1103 -389 -775 -389
-775 70 3 69 3 989 1970 c544 1084 998 1991 1009 2018 l20 47 -67 0 -67 0
-585 -1170 c-322 -643 -587 -1170 -590 -1170 -3 0 -268 527 -590 1170 l-585
1170 -67 0 -67 0 68 -142z"/>
<path d="M20277 1832 c-15 -9 -34 -35 -44 -61 -15 -38 -15 -48 -2 -84 47 -135
259 -104 259 38 0 48 -23 91 -60 110 -39 20 -118 19 -153 -3z"/>
</g>
</svg>
